<svg width="36" height="35" viewBox="0 0 36 35" fill="none" xmlns="http://www.w3.org/2000/svg">
<path d="M33.1325 8.07124C27.8969 -0.000266815 17.2076 -2.3999 8.91796 2.61752C0.84645 7.63494 -1.77134 18.5424 3.46424 26.6139L3.90053 27.2683L2.15534 33.8128L8.69981 32.0676L9.35426 32.5039C12.1902 34.031 15.2443 34.9036 18.2984 34.9036C21.5706 34.9036 24.8428 34.031 27.6788 32.2858C35.7503 27.0502 38.1499 16.3609 33.1325 8.07124ZM28.5514 24.8687C27.6788 26.1776 26.588 27.0502 25.061 27.2683C24.1884 27.2683 23.0976 27.7046 18.7347 25.9594C15.0261 24.2143 11.972 21.3783 9.79055 18.1061C8.48166 16.579 7.82721 14.6157 7.60907 12.6524C7.60907 10.9072 8.26351 9.38014 9.35426 8.28939C9.79055 7.85309 10.2269 7.63494 10.6631 7.63494H11.7539C12.1902 7.63494 12.6265 7.63494 12.8446 8.50754C13.2809 9.59828 14.3717 12.2161 14.3717 12.4342C14.5898 12.6524 14.5898 13.0887 14.3717 13.3068C14.5898 13.7431 14.3717 14.1794 14.1535 14.3976C13.9354 14.6157 13.7172 15.052 13.4991 15.2702C13.0628 15.4883 12.8446 15.9246 13.0628 16.3609C13.9354 17.6698 15.0261 18.9787 16.1169 20.0694C17.4258 21.1602 18.7347 22.0328 20.2617 22.6872C20.698 22.9054 21.1343 22.9054 21.3524 22.4691C21.5706 22.0328 22.6613 20.942 23.0976 20.5057C23.5339 20.0694 23.7521 20.0694 24.1884 20.2876L27.6788 22.0328C28.1151 22.2509 28.5514 22.4691 28.7695 22.6872C28.9877 23.3417 28.9877 24.2143 28.5514 24.8687Z" fill="#37424D"/>
</svg>
