<svg width="44" height="35" viewBox="0 0 44 35" fill="none" xmlns="http://www.w3.org/2000/svg">
<path d="M42.7503 5.46438C43.75 9.3625 43.75 17.5 43.75 17.5C43.75 17.5 43.75 25.6375 42.7503 29.5356C42.1947 31.6903 40.5694 33.3856 38.5109 33.9588C34.7725 35 21.875 35 21.875 35C21.875 35 8.98406 35 5.23906 33.9588C3.17188 33.3769 1.54875 31.6838 0.999688 29.5356C6.51926e-08 25.6375 0 17.5 0 17.5C0 17.5 6.51926e-08 9.3625 0.999688 5.46438C1.55531 3.30969 3.18062 1.61437 5.23906 1.04125C8.98406 -3.91155e-07 21.875 0 21.875 0C21.875 0 34.7725 -3.91155e-07 38.5109 1.04125C40.5781 1.62312 42.2012 3.31625 42.7503 5.46438ZM17.5 25.1562L30.625 17.5L17.5 9.84375V25.1562Z" fill="#37424D"/>
</svg>
