<svg width="28" height="24" viewBox="0 0 28 24" fill="none" xmlns="http://www.w3.org/2000/svg">
<path d="M27.875 3.98214H23.7933C23.2955 1.69241 21.3045 0 18.9152 0C16.5259 0 14.5348 1.69241 14.0371 3.98214H0V5.97321H14.0371C14.5348 8.26295 16.5259 9.95536 18.9152 9.95536C21.3045 9.95536 23.2955 8.26295 23.7933 5.97321H27.875V3.98214ZM18.9152 7.96429C17.2228 7.96429 15.9286 6.67009 15.9286 4.97768C15.9286 3.28527 17.2228 1.99107 18.9152 1.99107C20.6076 1.99107 21.9018 3.28527 21.9018 4.97768C21.9018 6.67009 20.6076 7.96429 18.9152 7.96429Z" fill="white"/>
<path d="M0 19.9107H4.0817C4.57946 22.2004 6.57054 23.8929 8.95982 23.8929C11.3491 23.8929 13.3402 22.2004 13.8379 19.9107H27.875V17.9196H13.8379C13.3402 15.6299 11.3491 13.9375 8.95982 13.9375C6.57054 13.9375 4.57946 15.6299 4.0817 17.9196H0V19.9107ZM8.95982 15.9286C10.6522 15.9286 11.9464 17.2228 11.9464 18.9152C11.9464 20.6076 10.6522 21.9018 8.95982 21.9018C7.26741 21.9018 5.97321 20.6076 5.97321 18.9152C5.97321 17.2228 7.26741 15.9286 8.95982 15.9286Z" fill="white"/>
</svg>
