<svg width="20" height="20" viewBox="0 0 20 20" fill="none" xmlns="http://www.w3.org/2000/svg">
<path fill-rule="evenodd" clip-rule="evenodd" d="M2 9C2 5.13401 5.13401 2 9 2C12.866 2 16 5.13401 16 9C16 10.8862 15.254 12.5981 14.041 13.8568C14.0069 13.883 13.9742 13.9117 13.943 13.943C13.9117 13.9742 13.883 14.0069 13.8568 14.041C12.5981 15.254 10.8862 16 9 16C5.13401 16 2 12.866 2 9ZM14.6177 16.0319C13.078 17.2635 11.125 18 9 18C4.02944 18 0 13.9706 0 9C0 4.02944 4.02944 0 9 0C13.9706 0 18 4.02944 18 9C18 11.125 17.2635 13.078 16.0319 14.6177L19.7072 18.293C20.0977 18.6835 20.0977 19.3167 19.7072 19.7072C19.3167 20.0977 18.6835 20.0977 18.293 19.7072L14.6177 16.0319Z" fill="#92939B"/>
</svg>
