<svg width="36" height="35" viewBox="0 0 36 35" fill="none" xmlns="http://www.w3.org/2000/svg">
<path d="M18.2453 11.6642C15.0319 11.6642 12.4096 14.2866 12.4096 17.5C12.4096 20.7134 15.0319 23.3358 18.2453 23.3358C21.4587 23.3358 24.081 20.7134 24.081 17.5C24.081 14.2866 21.4587 11.6642 18.2453 11.6642ZM35.748 17.5C35.748 15.0834 35.7699 12.6886 35.6342 10.2764C35.4985 7.47448 34.8593 4.9878 32.8105 2.93891C30.7573 0.885649 28.275 0.250846 25.4732 0.115129C23.0566 -0.0205877 20.6619 0.0013022 18.2497 0.0013022C15.8331 0.0013022 13.4384 -0.0205877 11.0262 0.115129C8.22434 0.250846 5.7377 0.890027 3.68886 2.93891C1.63563 4.99217 1.00084 7.47448 0.865127 10.2764C0.729413 12.693 0.751302 15.0877 0.751302 17.5C0.751302 19.9123 0.729413 22.3114 0.865127 24.7236C1.00084 27.5255 1.64001 30.0122 3.68886 32.0611C5.74208 34.1143 8.22434 34.7492 11.0262 34.8849C13.4428 35.0206 15.8375 34.9987 18.2497 34.9987C20.6663 34.9987 23.061 35.0206 25.4732 34.8849C28.275 34.7492 30.7616 34.11 32.8105 32.0611C34.8637 30.0078 35.4985 27.5255 35.6342 24.7236C35.7743 22.3114 35.748 19.9166 35.748 17.5ZM18.2453 26.4792C13.2764 26.4792 9.26627 22.469 9.26627 17.5C9.26627 12.531 13.2764 8.52081 18.2453 8.52081C23.2142 8.52081 27.2243 12.531 27.2243 17.5C27.2243 22.469 23.2142 26.4792 18.2453 26.4792ZM27.5921 10.2501C26.4319 10.2501 25.4951 9.31322 25.4951 8.15306C25.4951 6.9929 26.4319 6.05602 27.5921 6.05602C28.7522 6.05602 29.6891 6.9929 29.6891 8.15306C29.6894 8.42854 29.6354 8.70139 29.5301 8.95597C29.4249 9.21055 29.2704 9.44187 29.0756 9.63666C28.8808 9.83146 28.6495 9.98592 28.395 10.0912C28.1404 10.1964 27.8675 10.2504 27.5921 10.2501Z" fill="#37424D"/>
</svg>
