<svg width="11" height="19" viewBox="0 0 11 19" fill="none" xmlns="http://www.w3.org/2000/svg">
<path d="M10.5115 18.5001C10.6663 18.3427 10.7892 18.1557 10.873 17.9499C10.9569 17.744 11 17.5233 11 17.3005C11 17.0776 10.9569 16.8569 10.873 16.6511C10.7892 16.4452 10.6663 16.2583 10.5115 16.1008L4.02997 9.49852L10.5115 2.8962C10.8238 2.57804 10.9993 2.14651 10.9993 1.69656C10.9993 1.2466 10.8238 0.815073 10.5115 0.496906C10.1991 0.178741 9.7755 0 9.33378 0C8.89206 0 8.46843 0.178741 8.15608 0.496906L0.488524 8.30738C0.333664 8.4648 0.210803 8.65179 0.126975 8.85764C0.043148 9.06349 0 9.28417 0 9.50703C0 9.72989 0.043148 9.95056 0.126975 10.1564C0.210803 10.3623 0.333664 10.5492 0.488524 10.7067L8.15608 18.5171C8.79087 19.1638 9.85998 19.1638 10.5115 18.5001Z" fill="black"/>
</svg>
