<svg width="120" height="120" viewBox="0 0 120 120" fill="none" xmlns="http://www.w3.org/2000/svg">
<g clip-path="url(#clip0)">
<path d="M119.307 25.0708C118.621 24.0863 117.515 23.4777 116.315 23.4265L41.8774 20.2179C39.7417 20.1244 37.957 21.7733 37.8657 23.8991C37.7749 26.0241 39.4211 27.8196 41.5466 27.9109L110.944 30.9025L97.2992 73.4759H36.5772L25.6069 13.7433C25.3657 12.4341 24.4669 11.3419 23.2273 10.8556L5.25976 3.79691C3.27951 3.02162 1.04495 3.99429 0.267249 5.97212C-0.509114 7.95103 0.463287 10.1869 2.44246 10.9646L18.4185 17.2408L29.5824 78.0219C29.9189 79.849 31.5113 81.1762 33.3699 81.1762H35.2218L30.9931 92.9223C30.6391 93.9063 30.7849 94.999 31.3873 95.8538C31.9888 96.7088 32.9671 97.2174 34.0115 97.2174H36.9776C35.1397 99.2629 34.0115 101.956 34.0115 104.918C34.0115 111.287 39.1941 116.469 45.5621 116.469C51.9301 116.469 57.1128 111.287 57.1128 104.918C57.1128 101.956 55.9846 99.2629 54.147 97.2174H79.3303C77.4916 99.2629 76.3637 101.956 76.3637 104.918C76.3637 111.287 81.545 116.469 87.9143 116.469C94.2839 116.469 99.465 111.287 99.465 104.918C99.465 101.956 98.3371 99.2629 96.4997 97.2174H100.107C101.879 97.2174 103.315 95.781 103.315 94.0091C103.315 92.2367 101.879 90.8005 100.107 90.8005H38.5768L42.0415 81.1751H100.107C101.781 81.1751 103.262 80.0934 103.772 78.5004L119.815 28.4472C120.183 27.3048 119.994 26.0558 119.307 25.0708ZM45.5624 110.053C42.7311 110.053 40.4286 107.751 40.4286 104.919C40.4286 102.088 42.7311 99.7855 45.5624 99.7855C48.3937 99.7855 50.6959 102.088 50.6959 104.919C50.6959 107.751 48.3937 110.053 45.5624 110.053ZM87.9143 110.053C85.0831 110.053 82.7808 107.751 82.7808 104.919C82.7808 102.088 85.0831 99.7855 87.9143 99.7855C90.7456 99.7855 93.0478 102.088 93.0478 104.919C93.0478 107.751 90.7456 110.053 87.9143 110.053Z" fill="#E5E5E5"/>
</g>
<defs>
<clipPath id="clip0">
<rect width="120" height="120" fill="white"/>
</clipPath>
</defs>
</svg>
